<svg xmlns="http://www.w3.org/2000/svg" viewBox="0 0 512 512" height="35" width="35"><path fill="#4C43FA" d="M502.3 190.8c3.9-3.1 9.7-.2 9.7 4.7V400c0 26.5-21.5 48-48 48H48c-26.5 0-48-21.5-48-48V195.6c0-5 5.7-7.8 9.7-4.7 22.4 17.4 52.1 39.5 154.1 113.6 21.1 15.4 56.7 47.8 92.2 47.6 35.7.3 72-32.8 92.3-47.6 102-74.1 131.6-96.3 154-113.7zM256 320c23.2.4 56.6-29.2 73.4-41.4 132.7-96.3 142.8-104.7 173.4-128.7 5.8-4.5 9.2-11.5 9.2-18.9v-19c0-26.5-21.5-48-48-48H48C21.5 64 0 85.5 0 112v19c0 7.4 3.4 14.3 9.2 18.9 30.6 23.9 40.7 32.4 173.4 128.7 16.8 12.2 50.2 41.8 73.4 41.4z" data-effect="rotate" data-event="mouseenter"/><script>!function(){&quot;use strict&quot;;if(!window.requestAnimationFrame){var a=null;window.requestAnimationFrame=function(t,i){var e=(new Date).getTime();a||(a=e);var s=Math.max(0,16-(e-a)),n=window.setTimeout(function(){t(e+s)},s);return a=e+s,n}}function r(t,i,e,s){return 1&gt;(t/=s/2)?e/2*t*t*t*t+i:-e/2*((t-=2)*t*t*t-2)+i}function e(t){return t?[1,0]:[0,1]}function t(t){this.element=t,this.svg=function t(i){var e=i.parentNode;if(&quot;svg&quot;!==e.tagName)e=t(e);return e;}(this.element),this.getSize(),this.states=this.element.querySelectorAll(&quot;.js-transition-icon__state&quot;),this.time={start:null,total:200},this.status={interacted:!1,animating:!1},this.animation={effect:this.element.getAttribute(&quot;data-effect&quot;),event:this.element.getAttribute(&quot;data-event&quot;)},this.init()}t.prototype.getSize=function(){var t=this.svg.getAttribute(&quot;viewBox&quot;);this.size=t?{width:t.split(&quot; &quot;)[2],height:t.split(&quot; &quot;)[3]}:this.svg.getBoundingClientRect()},t.prototype.init=function(){var t=this;this.svg.addEventListener(t.animation.event,function(){t.status.animating||(t.status.animating=!0,window.requestAnimationFrame(t.triggerAnimation.bind(t)))})},t.prototype.triggerAnimation=function(t){var i=this.getProgress(t);this.animateIcon(i),this.checkProgress(i)},t.prototype.getProgress=function(t){return this.time.start||(this.time.start=t),t-this.time.start},t.prototype.checkProgress=function(t){if(this.time.total&gt;t)window.requestAnimationFrame(this.triggerAnimation.bind(this));else{this.status={interacted:!this.status.interacted,animating:!1},this.time.start=null;var i=e(this.status.interacted);this.states[i[0]].removeAttribute(&quot;aria-hidden&quot;),this.states[i[1]].setAttribute(&quot;aria-hidden&quot;,&quot;true&quot;)}},t.prototype.animateIcon=function(t){if(t&gt;this.time.total){t=this.time.total;}if(0&gt;t){t=0;};var i=e(this.status.interacted);this.states[i[0]].style.display=t&gt;this.time.total/2?&quot;none&quot;:&quot;block&quot;,this.states[i[1]].style.display=t&gt;this.time.total/2?&quot;block&quot;:&quot;none&quot;,&quot;scale&quot;==this.animation.effect?this.scaleIcon(t,i[0],i[1]):this.rotateIcon(t,i[0],i[1])},t.prototype.scaleIcon=function(t,i,e){var s=r(Math.min(t,this.time.total/2),1,-.2,this.time.total/2).toFixed(2),n=r(Math.max(t-this.time.total/2,0),.2,-.2,this.time.total/2).toFixed(2);this.states[i].setAttribute(&quot;transform&quot;,&quot;translate(&quot;+this.size.width*(1-s)/2+&quot; &quot;+this.size.height*(1-s)/2+&quot;) scale(&quot;+s+&quot;)&quot;),this.states[e].setAttribute(&quot;transform&quot;,&quot;translate(&quot;+this.size.width*n/2+&quot; &quot;+this.size.height*n/2+&quot;) scale(&quot;+(1-n)+&quot;)&quot;)},t.prototype.rotateIcon=function(t,i,e){var s=r(t,0,180,this.time.total).toFixed(2);this.states[i].setAttribute(&quot;transform&quot;,&quot;rotate(-&quot;+s+&quot; &quot;+this.size.width/2+&quot; &quot;+this.size.height/2+&quot;)&quot;),this.states[e].setAttribute(&quot;transform&quot;,&quot;rotate(&quot;+(180-s)+&quot; &quot;+this.size.width/2+&quot; &quot;+this.size.height/2+&quot;)&quot;)};var i=document.querySelectorAll(&quot;.js-transition-icon&quot;);if(i)for(var s=0;i.length&gt;s;s++)new t(i[s])}();</script></svg>