<svg xmlns="http://www.w3.org/2000/svg" width="39.81" height="39.625" viewBox="0 0 39.81 39.625">
  <defs>
    <style>
      .cls-1 {
        fill: #4c43fa;
        fill-rule: evenodd;
      }
    </style>
  </defs>
  <path id="Icon" class="cls-1" d="M2439.22,151.726h-32.94a3.442,3.442,0,0,0-3.32,3.406v8.561h12.83c2.03-1.456,4.17-2.7,6.76-2.7a11.726,11.726,0,0,1,6.76,2.7h13.46v-8.561a3.564,3.564,0,0,0-3.55-3.406h0Zm0.84,8.145a1.274,1.274,0,0,1-1.37,1.152h-5.3a1.314,1.314,0,0,1-1.41-1.152V155.56a1.293,1.293,0,0,1,1.41-1.123h5.3a1.253,1.253,0,0,1,1.37,1.123v4.311h0Zm-10.75,12.211a6.763,6.763,0,1,1-6.76-6.97,6.905,6.905,0,0,1,6.76,6.97h0Zm3.55-2.77a3.112,3.112,0,0,1,1,2.6,10.976,10.976,0,1,1-21.95,0,9.108,9.108,0,0,1,.34-2.6h-9.29v18.482a3.469,3.469,0,0,0,3.32,3.545h33.18a3.461,3.461,0,0,0,3.31-3.545V169.312h-9.91Z" transform="translate(-2402.97 -151.719)"/>
</svg>
